<!--?xml version="1.0" standalone="no"?-->              <svg id="sw-js-blob-svg" viewBox="0 0 100 100" xmlns="http://www.w3.org/2000/svg">                    <defs>                         <linearGradient id="sw-gradient" x1="0" x2="1" y1="1" y2="0">                            <stop id="stop1" stop-color="rgba(84.954, 217.575, 156.612, 1)" offset="0%"></stop>                            <stop id="stop2" stop-color="rgba(210, 255, 234, 1)" offset="100%"></stop>                        </linearGradient>                    </defs>                <path fill="url(#sw-gradient)" d="M22.7,-28.7C26.9,-23.6,25.9,-14,24.8,-6.4C23.8,1.3,22.8,6.9,20.8,13.6C18.8,20.4,16,28.2,10.1,32.3C4.2,36.4,-4.6,36.7,-12,33.7C-19.4,30.7,-25.2,24.3,-30,16.9C-34.9,9.5,-38.6,1,-37.7,-7C-36.7,-15,-30.9,-22.5,-23.9,-27C-16.8,-31.5,-8.4,-33.1,0.5,-33.6C9.3,-34.2,18.6,-33.7,22.7,-28.7Z" width="100%" height="100%" transform="translate(50 50)" stroke-width="0" style="transition: all 0.3s ease 0s;" stroke="url(#sw-gradient)"></path>              </svg>