<svg width="48" height="48" viewBox="0 0 48 48" fill="none" xmlns="http://www.w3.org/2000/svg">
<circle cx="24" cy="24" r="24" fill="#3BB77E"/>
<path d="M11.1243 33.3303C9.39228 33.3303 7.9575 32.978 6.81996 32.2734C5.68241 31.5616 4.88246 30.5561 4.4201 29.2571C3.96508 27.9508 3.88802 26.4059 4.18892 24.6225C4.48248 22.8832 5.07327 21.3567 5.96129 20.043C6.85665 18.7293 7.97952 17.7055 9.3299 16.9716C10.6803 16.2377 12.1848 15.8707 13.8434 15.8707C14.9589 15.8707 15.968 16.0505 16.8707 16.4102C17.7808 16.7624 18.5367 17.2982 19.1385 18.0174C19.7403 18.7293 20.1513 19.621 20.3714 20.6925C20.599 21.764 20.5953 23.0189 20.3604 24.4574L20.1513 25.7454H5.88423L6.33558 22.8391H16.1992C16.3093 22.1639 16.2653 21.5658 16.0671 21.0447C15.869 20.5237 15.5387 20.1164 15.0763 19.8228C14.614 19.5219 14.0452 19.3714 13.37 19.3714C12.6802 19.3714 12.0343 19.5402 11.4325 19.8778C10.8307 20.2154 10.3243 20.6594 9.91335 21.2099C9.50971 21.753 9.24917 22.3437 9.13175 22.9822L8.61435 25.8665C8.46757 26.7545 8.49692 27.4921 8.70242 28.0792C8.91525 28.6663 9.2822 29.1067 9.80327 29.4002C10.3243 29.6864 10.9848 29.8295 11.7848 29.8295C12.3059 29.8295 12.7939 29.7562 13.2489 29.6094C13.7113 29.4626 14.1223 29.2461 14.4819 28.9599C14.8415 28.6663 15.1351 28.303 15.3626 27.87L19.6449 28.1562C19.2486 29.1984 18.6468 30.1084 17.8395 30.8864C17.0322 31.657 16.0598 32.2588 14.9222 32.6918C13.792 33.1174 12.526 33.3303 11.1243 33.3303ZM28.2288 33.2752C26.9371 33.2752 25.8253 32.945 24.8932 32.2844C23.9685 31.6166 23.308 30.6368 22.9117 29.3452C22.5227 28.0462 22.486 26.4536 22.8016 24.5675C23.1245 22.63 23.7043 21.0191 24.5409 19.7347C25.3776 18.4431 26.3683 17.478 27.5132 16.8395C28.6581 16.1937 29.8507 15.8707 31.091 15.8707C32.0304 15.8707 32.79 16.0322 33.3698 16.3551C33.9569 16.6707 34.4082 17.067 34.7238 17.544C35.0394 18.0137 35.2596 18.4761 35.3843 18.9311H35.5274L36.9475 10.4545H41.6262L37.8833 33H33.2597L33.711 30.2919H33.5129C33.2193 30.7616 32.8303 31.2276 32.346 31.69C31.8689 32.145 31.2892 32.523 30.6066 32.8239C29.9314 33.1248 29.1388 33.2752 28.2288 33.2752ZM30.2984 29.5433C31.047 29.5433 31.7222 29.3378 32.324 28.9268C32.9258 28.5085 33.4321 27.9251 33.8431 27.1765C34.2541 26.4279 34.5403 25.5509 34.7018 24.5455C34.8706 23.54 34.8743 22.6667 34.7128 21.9254C34.5513 21.1842 34.2358 20.6117 33.7661 20.2081C33.3037 19.8045 32.6909 19.6026 31.9276 19.6026C31.157 19.6026 30.4745 19.8118 29.8801 20.2301C29.2929 20.6484 28.8049 21.2282 28.4159 21.9695C28.0343 22.7107 27.7628 23.5694 27.6013 24.5455C27.4398 25.5289 27.4288 26.3986 27.5683 27.1545C27.7077 27.9031 28.0049 28.4902 28.46 28.9158C28.915 29.3342 29.5278 29.5433 30.2984 29.5433Z" fill="white"/>
</svg>
