<svg width="180" height="48" viewBox="0 0 180 48" fill="none" xmlns="http://www.w3.org/2000/svg">
<circle cx="24" cy="24" r="24" fill="#3BB77E"/>
<path d="M11.1243 34.3303C9.39228 34.3303 7.9575 33.978 6.81996 33.2734C5.68241 32.5616 4.88246 31.5561 4.4201 30.2571C3.96508 28.9508 3.88802 27.4059 4.18892 25.6225C4.48248 23.8832 5.07327 22.3567 5.96129 21.043C6.85665 19.7293 7.97952 18.7055 9.3299 17.9716C10.6803 17.2377 12.1848 16.8707 13.8434 16.8707C14.9589 16.8707 15.968 17.0505 16.8707 17.4102C17.7808 17.7624 18.5367 18.2982 19.1385 19.0174C19.7403 19.7293 20.1513 20.621 20.3714 21.6925C20.599 22.764 20.5953 24.0189 20.3604 25.4574L20.1513 26.7454H5.88423L6.33558 23.8391H16.1992C16.3093 23.1639 16.2653 22.5658 16.0671 22.0447C15.869 21.5237 15.5387 21.1164 15.0763 20.8228C14.614 20.5219 14.0452 20.3714 13.37 20.3714C12.6802 20.3714 12.0343 20.5402 11.4325 20.8778C10.8307 21.2154 10.3243 21.6594 9.91335 22.2099C9.50971 22.753 9.24917 23.3437 9.13175 23.9822L8.61435 26.8665C8.46757 27.7545 8.49692 28.4921 8.70242 29.0792C8.91525 29.6663 9.2822 30.1067 9.80327 30.4002C10.3243 30.6864 10.9848 30.8295 11.7848 30.8295C12.3059 30.8295 12.7939 30.7562 13.2489 30.6094C13.7113 30.4626 14.1223 30.2461 14.4819 29.9599C14.8415 29.6663 15.1351 29.303 15.3626 28.87L19.6449 29.1562C19.2486 30.1984 18.6468 31.1084 17.8395 31.8864C17.0322 32.657 16.0598 33.2588 14.9222 33.6918C13.792 34.1174 12.526 34.3303 11.1243 34.3303ZM28.2288 34.2752C26.9371 34.2752 25.8253 33.945 24.8932 33.2844C23.9685 32.6166 23.308 31.6368 22.9117 30.3452C22.5227 29.0462 22.486 27.4536 22.8016 25.5675C23.1245 23.63 23.7043 22.0191 24.5409 20.7347C25.3776 19.4431 26.3683 18.478 27.5132 17.8395C28.6581 17.1937 29.8507 16.8707 31.091 16.8707C32.0304 16.8707 32.79 17.0322 33.3698 17.3551C33.9569 17.6707 34.4082 18.067 34.7238 18.544C35.0394 19.0137 35.2596 19.4761 35.3843 19.9311H35.5274L36.9475 11.4545H41.6262L37.8833 34H33.2597L33.711 31.2919H33.5129C33.2193 31.7616 32.8303 32.2276 32.346 32.69C31.8689 33.145 31.2892 33.523 30.6066 33.8239C29.9314 34.1248 29.1388 34.2752 28.2288 34.2752ZM30.2984 30.5433C31.047 30.5433 31.7222 30.3378 32.324 29.9268C32.9258 29.5085 33.4321 28.9251 33.8431 28.1765C34.2541 27.4279 34.5403 26.5509 34.7018 25.5455C34.8706 24.54 34.8743 23.6667 34.7128 22.9254C34.5513 22.1842 34.2358 21.6117 33.7661 21.2081C33.3037 20.8045 32.6909 20.6026 31.9276 20.6026C31.157 20.6026 30.4745 20.8118 29.8801 21.2301C29.2929 21.6484 28.8049 22.2282 28.4159 22.9695C28.0343 23.7107 27.7628 24.5694 27.6013 25.5455C27.4398 26.5289 27.4288 27.3986 27.5683 28.1545C27.7077 28.9031 28.0049 29.4902 28.46 29.9158C28.915 30.3342 29.5278 30.5433 30.2984 30.5433Z" fill="white"/>
<path d="M53.9158 34L50.9457 9.27273H56.6566L57.9123 26.4538H58.1175L65.4705 9.27273H70.3604L72.0266 26.4901H72.244L79.1744 9.27273H84.8853L73.7049 34H68.6097L66.6055 17.8331H66.4123L59.011 34H53.9158ZM89.8929 34.3622C88.0014 34.3622 86.4358 33.9598 85.1962 33.1548C83.9566 32.3419 83.0833 31.215 82.5762 29.7741C82.0771 28.3253 81.9846 26.639 82.2985 24.7152C82.6043 22.8156 83.2402 21.1534 84.2061 19.7287C85.1721 18.304 86.3996 17.1972 87.8887 16.4084C89.3778 15.6115 91.056 15.2131 92.9235 15.2131C94.807 15.2131 96.3685 15.6196 97.6081 16.4325C98.8477 17.2375 99.7211 18.3643 100.228 19.8132C100.735 21.2621 100.832 22.9484 100.518 24.8722C100.204 26.7637 99.5601 28.4219 98.5861 29.8466C97.6122 31.2713 96.3846 32.3821 94.9036 33.179C93.4225 33.9678 91.7523 34.3622 89.8929 34.3622ZM90.4 30.3778C91.2694 30.3778 92.0381 30.1323 92.7061 29.6413C93.3823 29.1423 93.9417 28.4661 94.3844 27.6129C94.8352 26.7517 95.1491 25.7777 95.3262 24.6911C95.5033 23.6205 95.5153 22.6707 95.3624 21.8416C95.2095 21.0045 94.8875 20.3445 94.3965 19.8615C93.9135 19.3786 93.2495 19.1371 92.4043 19.1371C91.535 19.1371 90.7623 19.3866 90.0861 19.8857C89.41 20.3767 88.8506 21.0528 88.4078 21.9141C87.9651 22.7753 87.6552 23.7533 87.4782 24.848C87.3091 25.9105 87.2971 26.8603 87.4419 27.6974C87.5868 28.5265 87.9048 29.1825 88.3958 29.6655C88.8868 30.1404 89.5549 30.3778 90.4 30.3778ZM102.341 34L105.432 15.4545H110.419L109.875 18.6903H110.068C110.6 17.5393 111.312 16.67 112.205 16.0824C113.107 15.4867 114.077 15.1889 115.115 15.1889C115.373 15.1889 115.642 15.205 115.924 15.2372C116.214 15.2614 116.472 15.3016 116.697 15.358L115.924 19.9339C115.699 19.8535 115.377 19.7891 114.958 19.7408C114.548 19.6844 114.157 19.6562 113.787 19.6562C113.039 19.6562 112.342 19.8213 111.698 20.1513C111.054 20.4732 110.511 20.924 110.068 21.5036C109.634 22.0831 109.348 22.7512 109.211 23.5078L107.485 34H102.341ZM125.502 9.27273L121.397 34H116.253L120.358 9.27273H125.502ZM132.327 34.3018C130.91 34.3018 129.69 33.9396 128.668 33.2152C127.654 32.4827 126.93 31.4081 126.495 29.9915C126.068 28.5668 126.028 26.8201 126.374 24.7514C126.728 22.6264 127.364 20.8596 128.282 19.451C129.199 18.0343 130.286 16.9759 131.542 16.2756C132.797 15.5672 134.105 15.2131 135.466 15.2131C136.496 15.2131 137.329 15.3902 137.965 15.7443C138.609 16.0904 139.104 16.5251 139.45 17.0483C139.796 17.5634 140.038 18.0705 140.175 18.5696H140.331L141.889 9.27273H147.02L142.915 34H137.844L138.339 31.0298H138.122C137.8 31.545 137.373 32.0561 136.842 32.5632C136.319 33.0623 135.683 33.4768 134.934 33.8068C134.194 34.1368 133.325 34.3018 132.327 34.3018ZM134.596 30.2088C135.417 30.2088 136.158 29.9834 136.818 29.5327C137.478 29.0739 138.033 28.4339 138.484 27.6129C138.935 26.7919 139.249 25.83 139.426 24.7273C139.611 23.6245 139.615 22.6667 139.438 21.8537C139.261 21.0407 138.915 20.4129 138.4 19.9702C137.893 19.5275 137.22 19.3061 136.383 19.3061C135.538 19.3061 134.79 19.5355 134.138 19.9943C133.494 20.4531 132.958 21.089 132.532 21.902C132.113 22.715 131.815 23.6567 131.638 24.7273C131.461 25.8059 131.449 26.7597 131.602 27.5888C131.755 28.4098 132.081 29.0537 132.58 29.5206C133.079 29.9794 133.751 30.2088 134.596 30.2088Z" fill="#3BB77E"/>
</svg>
