<svg width="40" height="40" viewBox="0 0 40 40" fill="none" xmlns="http://www.w3.org/2000/svg">
<path d="M20.0167 28.3333C18.6 28.3333 17.1667 27.9667 16.05 27.25L6.01666 20.7C4.14999 19.4833 3.03333 17.4333 3.03333 15.2C3.03333 12.9667 4.14999 10.9167 6.01666 9.7L16.0667 3.16666C18.3 1.71666 21.7833 1.71666 24 3.18333L33.9833 9.73333C35.8333 10.95 36.95 13 36.95 15.2167C36.95 17.4333 35.8333 19.4833 33.9833 20.7L24 27.25C22.8833 27.9833 21.45 28.3333 20.0167 28.3333ZM20.0167 4.58333C19.0667 4.58333 18.1167 4.8 17.4333 5.26666L7.39999 11.8C6.23333 12.5667 5.54999 13.8 5.54999 15.2C5.54999 16.6 6.21666 17.8333 7.39999 18.6L17.4333 25.15C18.8167 26.05 21.25 26.05 22.6333 25.15L32.6167 18.6C33.7833 17.8333 34.45 16.6 34.45 15.2C34.45 13.8 33.7833 12.5667 32.6167 11.8L22.6333 5.25C21.9333 4.81666 20.9833 4.58333 20.0167 4.58333Z" fill="#696969"/>
<path d="M20 37.9167C19.2667 37.9167 18.5167 37.8167 17.9167 37.6167L12.6 35.85C10.0833 35.0167 8.10001 32.2667 8.11668 29.6167L8.13335 21.8C8.13335 21.1167 8.70002 20.55 9.38335 20.55C10.0667 20.55 10.6333 21.1167 10.6333 21.8L10.6167 29.6167C10.6167 31.1833 11.9167 32.9833 13.4 33.4833L18.7167 35.25C19.3833 35.4667 20.6167 35.4667 21.2833 35.25L26.6 33.4833C28.0833 32.9833 29.3833 31.1833 29.3833 29.6333V21.9C29.3833 21.2167 29.95 20.65 30.6333 20.65C31.3167 20.65 31.8833 21.2167 31.8833 21.9V29.6333C31.8833 32.2833 29.9167 35.0167 27.4 35.8667L22.0833 37.6333C21.4833 37.8167 20.7333 37.9167 20 37.9167Z" fill="#696969"/>
<path d="M35.6667 26.25C34.9834 26.25 34.4167 25.6833 34.4167 25V15C34.4167 14.3167 34.9834 13.75 35.6667 13.75C36.35 13.75 36.9167 14.3167 36.9167 15V25C36.9167 25.6833 36.35 26.25 35.6667 26.25Z" fill="#696969"/>
</svg>
