<svg width="40" height="40" viewBox="0 0 40 40" fill="none" xmlns="http://www.w3.org/2000/svg">
<path d="M32.95 18.75H26.2167C22.8667 18.75 21.25 17.2667 21.25 14.2V6.63333C21.25 3.56666 22.8833 2.08333 26.2167 2.08333H32.95C36.3 2.08333 37.9167 3.56666 37.9167 6.63333V14.1833C37.9167 17.2667 36.2833 18.75 32.95 18.75ZM26.2167 4.58333C23.9833 4.58333 23.75 5.21666 23.75 6.63333V14.1833C23.75 15.6167 23.9833 16.2333 26.2167 16.2333H32.95C35.1833 16.2333 35.4167 15.6 35.4167 14.1833V6.63333C35.4167 5.19999 35.1833 4.58333 32.95 4.58333H26.2167Z" fill="#696969"/>
<path d="M32.95 37.9167H26.2167C22.8667 37.9167 21.25 36.2833 21.25 32.95V26.2167C21.25 22.8667 22.8833 21.25 26.2167 21.25H32.95C36.3 21.25 37.9167 22.8833 37.9167 26.2167V32.95C37.9167 36.2833 36.2833 37.9167 32.95 37.9167ZM26.2167 23.75C24.25 23.75 23.75 24.25 23.75 26.2167V32.95C23.75 34.9167 24.25 35.4167 26.2167 35.4167H32.95C34.9167 35.4167 35.4167 34.9167 35.4167 32.95V26.2167C35.4167 24.25 34.9167 23.75 32.95 23.75H26.2167Z" fill="#696969"/>
<path d="M13.7833 18.75H7.04998C3.69998 18.75 2.08331 17.2667 2.08331 14.2V6.63333C2.08331 3.56666 3.71665 2.08333 7.04998 2.08333H13.7833C17.1333 2.08333 18.75 3.56666 18.75 6.63333V14.1833C18.75 17.2667 17.1166 18.75 13.7833 18.75ZM7.04998 4.58333C4.81665 4.58333 4.58331 5.21666 4.58331 6.63333V14.1833C4.58331 15.6167 4.81665 16.2333 7.04998 16.2333H13.7833C16.0166 16.2333 16.25 15.6 16.25 14.1833V6.63333C16.25 5.19999 16.0166 4.58333 13.7833 4.58333H7.04998Z" fill="#696969"/>
<path d="M13.7833 37.9167H7.04998C3.69998 37.9167 2.08331 36.2833 2.08331 32.95V26.2167C2.08331 22.8667 3.71665 21.25 7.04998 21.25H13.7833C17.1333 21.25 18.75 22.8833 18.75 26.2167V32.95C18.75 36.2833 17.1166 37.9167 13.7833 37.9167ZM7.04998 23.75C5.08331 23.75 4.58331 24.25 4.58331 26.2167V32.95C4.58331 34.9167 5.08331 35.4167 7.04998 35.4167H13.7833C15.75 35.4167 16.25 34.9167 16.25 32.95V26.2167C16.25 24.25 15.75 23.75 13.7833 23.75H7.04998Z" fill="#696969"/>
</svg>
