<svg width="40" height="40" viewBox="0 0 40 40" fill="none" xmlns="http://www.w3.org/2000/svg">
<path d="M25.4 37.1167H25.1833C17.7833 37.1167 14.2167 34.2 13.6 27.6667C13.5333 26.9833 14.0333 26.3667 14.7333 26.3C15.4 26.2333 16.0333 26.75 16.1 27.4333C16.5833 32.6667 19.05 34.6167 25.2 34.6167H25.4167C32.2 34.6167 34.6 32.2167 34.6 25.4333V14.5667C34.6 7.78333 32.2 5.38333 25.4167 5.38333H25.2C19.0167 5.38333 16.55 7.36666 16.1 12.7C16.0167 13.3833 15.4333 13.9 14.7333 13.8333C14.0333 13.7833 13.5333 13.1667 13.5833 12.4833C14.15 5.85 17.7333 2.88333 25.1833 2.88333H25.4C33.5833 2.88333 37.0833 6.38333 37.0833 14.5667V25.4333C37.0833 33.6167 33.5833 37.1167 25.4 37.1167Z" fill="#696969"/>
<path d="M25 21.25H6.03333C5.34999 21.25 4.78333 20.6833 4.78333 20C4.78333 19.3167 5.34999 18.75 6.03333 18.75H25C25.6833 18.75 26.25 19.3167 26.25 20C26.25 20.6833 25.6833 21.25 25 21.25Z" fill="#696969"/>
<path d="M9.75 26.8333C9.43334 26.8333 9.11667 26.7167 8.86667 26.4667L3.28334 20.8833C2.8 20.4 2.8 19.6 3.28334 19.1167L8.86667 13.5333C9.35 13.05 10.15 13.05 10.6333 13.5333C11.1167 14.0167 11.1167 14.8167 10.6333 15.3L5.93334 20L10.6333 24.7C11.1167 25.1833 11.1167 25.9833 10.6333 26.4667C10.4 26.7167 10.0667 26.8333 9.75 26.8333Z" fill="#696969"/>
</svg>
