<svg width="45" height="45" viewBox="0 0 45 45" fill="none" xmlns="http://www.w3.org/2000/svg">
<circle cx="22.5" cy="22.5" r="22.5" fill="#EAEAEA"/>
<path d="M28.125 32.9062H16.875C12.7687 32.9062 10.4062 30.5438 10.4062 26.4375V18.5625C10.4062 14.4562 12.7687 12.0938 16.875 12.0938H28.125C32.2313 12.0938 34.5938 14.4562 34.5938 18.5625V26.4375C34.5938 30.5438 32.2313 32.9062 28.125 32.9062ZM16.875 13.7812C13.6575 13.7812 12.0938 15.345 12.0938 18.5625V26.4375C12.0938 29.655 13.6575 31.2188 16.875 31.2188H28.125C31.3425 31.2188 32.9062 29.655 32.9062 26.4375V18.5625C32.9062 15.345 31.3425 13.7812 28.125 13.7812H16.875Z" fill="#6F6F6F"/>
<path d="M22.4996 23.4787C21.5546 23.4787 20.5984 23.1862 19.8671 22.59L16.3459 19.7775C15.9859 19.485 15.9184 18.9562 16.2109 18.5962C16.5034 18.2362 17.0321 18.1687 17.3921 18.4612L20.9134 21.2737C21.7684 21.96 23.2196 21.96 24.0746 21.2737L27.5959 18.4612C27.9559 18.1687 28.4959 18.225 28.7771 18.5962C29.0696 18.9562 29.0134 19.4962 28.6421 19.7775L25.1209 22.59C24.4009 23.1862 23.4446 23.4787 22.4996 23.4787Z" fill="#6F6F6F"/>
</svg>
