<svg width="45" height="45" viewBox="0 0 45 45" fill="none" xmlns="http://www.w3.org/2000/svg">
<circle cx="22.5" cy="22.5" r="22.5" fill="#EAEAEA"/>
<path d="M22.5 35.6612C21.7238 35.6612 20.9925 35.2675 20.475 34.5813L18.7875 32.3313C18.7537 32.2863 18.6187 32.23 18.5625 32.2188H18C13.3087 32.2188 10.4062 30.9475 10.4062 24.625V19C10.4062 14.0275 13.0275 11.4062 18 11.4062H27C31.9725 11.4062 34.5938 14.0275 34.5938 19V24.625C34.5938 29.5975 31.9725 32.2188 27 32.2188H26.4375C26.3475 32.2188 26.2688 32.2638 26.2125 32.3313L24.525 34.5813C24.0075 35.2675 23.2762 35.6612 22.5 35.6612ZM18 13.0938C13.9725 13.0938 12.0938 14.9725 12.0938 19V24.625C12.0938 29.71 13.8375 30.5312 18 30.5312H18.5625C19.1362 30.5312 19.7887 30.8575 20.1375 31.3188L21.825 33.5688C22.2188 34.0863 22.7812 34.0863 23.175 33.5688L24.8625 31.3188C25.2338 30.8238 25.8188 30.5312 26.4375 30.5312H27C31.0275 30.5312 32.9062 28.6525 32.9062 24.625V19C32.9062 14.9725 31.0275 13.0938 27 13.0938H18Z" fill="#6F6F6F"/>
<path d="M22.5 23.5C21.87 23.5 21.375 22.9937 21.375 22.375C21.375 21.7562 21.8812 21.25 22.5 21.25C23.1187 21.25 23.625 21.7562 23.625 22.375C23.625 22.9937 23.13 23.5 22.5 23.5Z" fill="#6F6F6F"/>
<path d="M27 23.5C26.37 23.5 25.875 22.9937 25.875 22.375C25.875 21.7562 26.3812 21.25 27 21.25C27.6187 21.25 28.125 21.7562 28.125 22.375C28.125 22.9937 27.63 23.5 27 23.5Z" fill="#6F6F6F"/>
<path d="M18 23.5C17.37 23.5 16.875 22.9937 16.875 22.375C16.875 21.7562 17.3812 21.25 18 21.25C18.6187 21.25 19.125 21.7562 19.125 22.375C19.125 22.9937 18.63 23.5 18 23.5Z" fill="#6F6F6F"/>
</svg>
