<svg width="45" height="45" viewBox="0 0 45 45" fill="none" xmlns="http://www.w3.org/2000/svg">
<circle cx="22.5" cy="22.5" r="22.5" fill="#EAEAEA"/>
<path d="M28.6313 34.5938C27.36 34.5938 26.0212 34.29 24.6375 33.705C23.2875 33.1312 21.9263 32.3438 20.5988 31.3875C19.2825 30.42 18.0113 29.34 16.8075 28.1588C15.615 26.955 14.535 25.6838 13.5788 24.3787C12.6113 23.0288 11.835 21.6788 11.2837 20.3737C10.6987 18.9787 10.4062 17.6287 10.4062 16.3575C10.4062 15.48 10.5637 14.6475 10.8675 13.8712C11.1825 13.0725 11.6888 12.33 12.375 11.6888C13.2413 10.8338 14.2313 10.4062 15.2888 10.4062C15.7275 10.4062 16.1775 10.5075 16.56 10.6875C16.9987 10.89 17.37 11.1937 17.64 11.5987L20.25 15.2775C20.4862 15.6037 20.6662 15.9187 20.79 16.2337C20.9362 16.5712 21.015 16.9088 21.015 17.235C21.015 17.6625 20.8912 18.0788 20.655 18.4725C20.4862 18.7762 20.2275 19.1025 19.9012 19.4288L19.1363 20.2275C19.1475 20.2612 19.1587 20.2838 19.17 20.3063C19.305 20.5425 19.575 20.9475 20.0925 21.555C20.6437 22.185 21.1613 22.7587 21.6788 23.2875C22.3425 23.94 22.8938 24.4575 23.4113 24.885C24.0525 25.425 24.4688 25.695 24.7163 25.8187L24.6937 25.875L25.515 25.065C25.8638 24.7162 26.2013 24.4575 26.5275 24.2887C27.1462 23.9062 27.9338 23.8387 28.7213 24.165C29.0138 24.2887 29.3288 24.4575 29.6663 24.6937L33.4013 27.3487C33.8175 27.63 34.1213 27.99 34.3013 28.4175C34.47 28.845 34.5487 29.2388 34.5487 29.6325C34.5487 30.1725 34.425 30.7125 34.1887 31.2188C33.9525 31.725 33.66 32.1638 33.2887 32.5688C32.6475 33.2775 31.95 33.7838 31.14 34.11C30.3638 34.425 29.52 34.5938 28.6313 34.5938ZM15.2888 12.0938C14.67 12.0938 14.0963 12.3638 13.545 12.9037C13.0275 13.3875 12.6675 13.9163 12.4425 14.49C12.2062 15.075 12.0938 15.6937 12.0938 16.3575C12.0938 17.4037 12.3413 18.54 12.8363 19.71C13.3425 20.9025 14.0512 22.14 14.9513 23.3775C15.8513 24.615 16.875 25.8188 18 26.955C19.125 28.0688 20.34 29.1038 21.5887 30.015C22.8038 30.9037 24.0525 31.6237 25.29 32.1413C27.2137 32.9625 29.0138 33.1537 30.4988 32.535C31.0725 32.2987 31.5787 31.9388 32.04 31.4212C32.2987 31.14 32.5013 30.8363 32.67 30.4762C32.805 30.195 32.8725 29.9025 32.8725 29.61C32.8725 29.43 32.8388 29.25 32.7488 29.0475C32.715 28.98 32.6475 28.8563 32.4338 28.71L28.6987 26.055C28.4738 25.8975 28.2712 25.785 28.08 25.7063C27.8325 25.605 27.7312 25.5037 27.3487 25.74C27.1237 25.8525 26.9212 26.0212 26.6962 26.2463L25.8413 27.09C25.4025 27.5175 24.7275 27.6187 24.21 27.4275L23.9062 27.2925C23.445 27.045 22.905 26.6625 22.3088 26.1562C21.7688 25.695 21.1838 25.155 20.475 24.4575C19.9237 23.895 19.3725 23.2987 18.7987 22.635C18.27 22.0162 17.8875 21.4875 17.6512 21.0487L17.5163 20.7113C17.4488 20.4525 17.4262 20.3062 17.4262 20.1488C17.4262 19.7437 17.5725 19.3837 17.8537 19.1025L18.6975 18.225C18.9225 18 19.0912 17.7862 19.2037 17.595C19.2937 17.4488 19.3275 17.325 19.3275 17.2125C19.3275 17.1225 19.2938 16.9875 19.2375 16.8525C19.1588 16.6725 19.035 16.47 18.8775 16.2562L16.2675 12.5663C16.155 12.4088 16.02 12.2962 15.8513 12.2175C15.6713 12.1387 15.48 12.0938 15.2888 12.0938ZM24.6937 25.8863L24.5138 26.6512L24.8175 25.8637C24.7613 25.8525 24.7162 25.8638 24.6937 25.8863Z" fill="#6F6F6F"/>
</svg>
