<svg width="35" height="35" viewBox="0 0 35 35" fill="none" xmlns="http://www.w3.org/2000/svg">
<path d="M17.5 22.9688C14.4813 22.9688 12.0312 20.5188 12.0312 17.5C12.0312 14.4813 14.4813 12.0312 17.5 12.0312C20.5188 12.0312 22.9688 14.4813 22.9688 17.5C22.9688 20.5188 20.5188 22.9688 17.5 22.9688ZM17.5 14.2188C15.6917 14.2188 14.2188 15.6917 14.2188 17.5C14.2188 19.3083 15.6917 20.7812 17.5 20.7812C19.3083 20.7812 20.7812 19.3083 20.7812 17.5C20.7812 15.6917 19.3083 14.2188 17.5 14.2188Z" fill="#696969"/>
<path d="M22.1811 32.3604C21.8748 32.3604 21.5686 32.3167 21.2623 32.2438C20.3582 31.9958 19.5998 31.4271 19.1186 30.625L18.9436 30.3333C18.0832 28.8458 16.9019 28.8458 16.0415 30.3333L15.8811 30.6104C15.3998 31.4271 14.6415 32.0104 13.7373 32.2438C12.8186 32.4917 11.8707 32.3604 11.0686 31.8792L8.56025 30.4354C7.67067 29.925 7.029 29.0938 6.75192 28.0875C6.48942 27.0813 6.62067 26.0458 7.13109 25.1563C7.554 24.4125 7.67067 23.7417 7.42275 23.3188C7.17484 22.8958 6.54775 22.6479 5.68734 22.6479C3.55817 22.6479 1.82275 20.9125 1.82275 18.7833V16.2167C1.82275 14.0875 3.55817 12.3521 5.68734 12.3521C6.54775 12.3521 7.17484 12.1042 7.42275 11.6813C7.67067 11.2583 7.56859 10.5875 7.13109 9.84376C6.62067 8.95418 6.48942 7.90418 6.75192 6.91251C7.01442 5.90626 7.65609 5.07501 8.56025 4.56459L11.0832 3.12084C12.7311 2.14376 14.904 2.71251 15.8957 4.38959L16.0707 4.68126C16.9311 6.16876 18.1123 6.16876 18.9728 4.68126L19.1332 4.40418C20.1248 2.71251 22.2978 2.14376 23.9603 3.13543L26.4686 4.57918C27.3582 5.08959 27.9998 5.92084 28.2769 6.92709C28.5394 7.93334 28.4082 8.96876 27.8978 9.85835C27.4748 10.6021 27.3582 11.2729 27.6061 11.6958C27.854 12.1188 28.4811 12.3667 29.3415 12.3667C31.4707 12.3667 33.2061 14.1021 33.2061 16.2313V18.7979C33.2061 20.9271 31.4707 22.6625 29.3415 22.6625C28.4811 22.6625 27.854 22.9104 27.6061 23.3333C27.3582 23.7563 27.4603 24.4271 27.8978 25.1708C28.4082 26.0604 28.554 27.1104 28.2769 28.1021C28.0144 29.1083 27.3728 29.9396 26.4686 30.45L23.9457 31.8938C23.3915 32.2 22.7936 32.3604 22.1811 32.3604ZM17.4998 26.9646C18.7978 26.9646 20.0082 27.7813 20.8394 29.225L20.9998 29.5021C21.1748 29.8083 21.4665 30.0271 21.8165 30.1146C22.1665 30.2021 22.5165 30.1583 22.8082 29.9833L25.3311 28.525C25.7103 28.3063 26.0019 27.9417 26.1186 27.5042C26.2353 27.0667 26.1769 26.6146 25.9582 26.2354C25.1269 24.8063 25.0248 23.3333 25.6665 22.2104C26.3082 21.0875 27.6353 20.4458 29.2978 20.4458C30.2311 20.4458 30.9748 19.7021 30.9748 18.7688V16.2021C30.9748 15.2833 30.2311 14.525 29.2978 14.525C27.6353 14.525 26.3082 13.8833 25.6665 12.7604C25.0248 11.6375 25.1269 10.1646 25.9582 8.73543C26.1769 8.35626 26.2353 7.90418 26.1186 7.46668C26.0019 7.02918 25.7248 6.67918 25.3457 6.44584L22.8228 5.00209C22.1957 4.62293 21.3644 4.84168 20.9853 5.48334L20.8248 5.76043C19.9936 7.20418 18.7832 8.02084 17.4853 8.02084C16.1873 8.02084 14.9769 7.20418 14.1457 5.76043L13.9853 5.46876C13.6207 4.85626 12.804 4.63751 12.1769 5.00209L9.654 6.46043C9.27484 6.67918 8.98317 7.04376 8.8665 7.48126C8.74984 7.91876 8.80817 8.37084 9.02692 8.75001C9.85817 10.1792 9.96025 11.6521 9.31859 12.775C8.67692 13.8979 7.34984 14.5396 5.68734 14.5396C4.754 14.5396 4.01025 15.2833 4.01025 16.2167V18.7833C4.01025 19.7021 4.754 20.4604 5.68734 20.4604C7.34984 20.4604 8.67692 21.1021 9.31859 22.225C9.96025 23.3479 9.85817 24.8208 9.02692 26.25C8.80817 26.6292 8.74984 27.0813 8.8665 27.5188C8.98317 27.9563 9.26025 28.3063 9.63942 28.5396L12.1623 29.9833C12.4686 30.1729 12.8332 30.2167 13.1686 30.1292C13.5186 30.0417 13.8103 29.8083 13.9998 29.5021L14.1603 29.225C14.9915 27.7958 16.2019 26.9646 17.4998 26.9646Z" fill="#696969"/>
</svg>
