<svg width="40" height="40" viewBox="0 0 40 40" fill="none" xmlns="http://www.w3.org/2000/svg">
<path d="M15.266 19.3667C15.216 19.3667 15.1827 19.3667 15.1327 19.3667C15.0494 19.35 14.9327 19.35 14.8327 19.3667C9.99936 19.2167 6.34937 15.4167 6.34937 10.7333C6.34937 5.96667 10.2327 2.08333 14.9994 2.08333C19.766 2.08333 23.6494 5.96667 23.6494 10.7333C23.6327 15.4167 19.966 19.2167 15.316 19.3667C15.2994 19.3667 15.2827 19.3667 15.266 19.3667ZM14.9994 4.58333C11.616 4.58333 8.84937 7.35 8.84937 10.7333C8.84937 14.0667 11.4494 16.75 14.766 16.8667C14.866 16.85 15.0827 16.85 15.2994 16.8667C18.566 16.7167 21.1327 14.0333 21.1494 10.7333C21.1494 7.35 18.3827 4.58333 14.9994 4.58333Z" fill="#696969"/>
<path d="M27.566 19.5833C27.516 19.5833 27.466 19.5833 27.416 19.5667C26.7327 19.6333 26.0327 19.15 25.966 18.4667C25.8993 17.7833 26.316 17.1667 26.9993 17.0833C27.1993 17.0667 27.416 17.0667 27.5993 17.0667C30.0327 16.9333 31.9327 14.9333 31.9327 12.4833C31.9327 9.95 29.8827 7.9 27.3493 7.9C26.666 7.91667 26.0993 7.35 26.0993 6.66667C26.0993 5.98333 26.666 5.41667 27.3493 5.41667C31.2493 5.41667 34.4327 8.6 34.4327 12.5C34.4327 16.3333 31.4327 19.4333 27.616 19.5833C27.5993 19.5833 27.5827 19.5833 27.566 19.5833Z" fill="#696969"/>
<path d="M15.2827 37.5833C12.016 37.5833 8.73268 36.75 6.24935 35.0833C3.93268 33.55 2.66602 31.45 2.66602 29.1667C2.66602 26.8833 3.93268 24.7667 6.24935 23.2167C11.2493 19.9 19.3493 19.9 24.316 23.2167C26.616 24.75 27.8993 26.85 27.8993 29.1333C27.8993 31.4167 26.6327 33.5333 24.316 35.0833C21.816 36.75 18.5493 37.5833 15.2827 37.5833ZM7.63268 25.3167C6.03268 26.3833 5.16602 27.75 5.16602 29.1833C5.16602 30.6 6.04935 31.9667 7.63268 33.0167C11.7827 35.8 18.7827 35.8 22.9327 33.0167C24.5327 31.95 25.3993 30.5833 25.3993 29.15C25.3993 27.7333 24.516 26.3667 22.9327 25.3167C18.7827 22.55 11.7827 22.55 7.63268 25.3167Z" fill="#696969"/>
<path d="M30.566 34.5833C29.9827 34.5833 29.466 34.1833 29.3494 33.5833C29.216 32.9 29.6494 32.25 30.316 32.1C31.366 31.8833 32.3327 31.4667 33.0827 30.8833C34.0327 30.1667 34.5494 29.2667 34.5494 28.3167C34.5494 27.3667 34.0327 26.4667 33.0994 25.7667C32.366 25.2 31.4494 24.8 30.366 24.55C29.6994 24.4 29.266 23.7333 29.416 23.05C29.566 22.3833 30.2327 21.95 30.916 22.1C32.3494 22.4167 33.5994 22.9833 34.616 23.7667C36.166 24.9333 37.0494 26.5833 37.0494 28.3167C37.0494 30.05 36.1494 31.7 34.5994 32.8833C33.566 33.6833 32.266 34.2667 30.8327 34.55C30.7327 34.5833 30.6494 34.5833 30.566 34.5833Z" fill="#696969"/>
</svg>
