<svg width="40" height="40" viewBox="0 0 40 40" fill="none" xmlns="http://www.w3.org/2000/svg">
<path d="M20 37.9167C18.8333 37.9167 17.65 37.4667 16.7667 36.5834L13.9166 33.7667C13.2166 33.0667 12.25 32.6833 11.2667 32.6833H10C6.55 32.6833 3.75 29.9 3.75 26.4834V8.29996C3.75 4.8833 6.55 2.10001 10 2.10001H30C33.45 2.10001 36.25 4.8833 36.25 8.29996V26.4834C36.25 29.9 33.45 32.6833 30 32.6833H28.7333C27.75 32.6833 26.7834 33.0833 26.0834 33.7667L23.2333 36.5834C22.35 37.4667 21.1667 37.9167 20 37.9167ZM10 4.58333C7.93333 4.58333 6.25 6.24995 6.25 8.28328V26.4667C6.25 28.5167 7.93333 30.1666 10 30.1666H11.2667C12.9167 30.1666 14.5166 30.8333 15.6833 31.9833L18.5333 34.8C19.35 35.6 20.6667 35.6 21.4834 34.8L24.3333 31.9833C25.5 30.8333 27.1 30.1666 28.75 30.1666H30C32.0667 30.1666 33.75 28.5 33.75 26.4667V8.28328C33.75 6.23328 32.0667 4.58333 30 4.58333H10Z" fill="#696969"/>
<path d="M19.9999 17.9168C17.1665 17.9168 14.8665 15.6167 14.8665 12.7834C14.8665 9.95007 17.1665 7.65015 19.9999 7.65015C22.8332 7.65015 25.1332 9.95007 25.1332 12.7834C25.1332 15.6167 22.8332 17.9168 19.9999 17.9168ZM19.9999 10.1501C18.5499 10.1501 17.3665 11.3334 17.3665 12.7834C17.3665 14.2334 18.5499 15.4168 19.9999 15.4168C21.4499 15.4168 22.6332 14.2334 22.6332 12.7834C22.6332 11.3334 21.4499 10.1501 19.9999 10.1501Z" fill="#696969"/>
<path d="M26.6666 27.3502C25.9833 27.3502 25.4166 26.7835 25.4166 26.1002C25.4166 23.8002 22.9833 21.9169 20 21.9169C17.0166 21.9169 14.5833 23.8002 14.5833 26.1002C14.5833 26.7835 14.0166 27.3502 13.3333 27.3502C12.65 27.3502 12.0833 26.7835 12.0833 26.1002C12.0833 22.4168 15.6333 19.4169 20 19.4169C24.3666 19.4169 27.9166 22.4168 27.9166 26.1002C27.9166 26.7835 27.35 27.3502 26.6666 27.3502Z" fill="#696969"/>
</svg>
