<svg width="25" height="25" viewBox="0 0 32 32" fill="none" xmlns="http://www.w3.org/2000/svg">
<path opacity="0.8" d="M29.7551 1.09C28.6799 0.904799 27.5911 0.80947 26.5001 0.804999C22.7777 0.801947 19.1328 1.86936 16.0001 3.88C12.8593 1.89576 9.21509 0.854545 5.50011 0.879999C4.40908 0.88447 3.32032 0.979799 2.24511 1.165C1.89292 1.22572 1.57398 1.41019 1.34573 1.68519C1.11748 1.96019 0.994916 2.30765 1.00011 2.665V20.665C0.996899 20.8854 1.0423 21.1038 1.13309 21.3047C1.22387 21.5055 1.35781 21.6839 1.52537 21.8271C1.69293 21.9703 1.89 22.0749 2.10255 22.1333C2.31509 22.1917 2.5379 22.2025 2.75511 22.165C4.90464 21.7928 7.10691 21.8546 9.23221 22.3466C11.3575 22.8386 13.3628 23.751 15.1301 25.03L15.3101 25.135H15.4751C15.6415 25.2043 15.8199 25.24 16.0001 25.24C16.1803 25.24 16.3588 25.2043 16.5251 25.135H16.6901L16.8701 25.03C18.625 23.7224 20.6246 22.7805 22.7503 22.26C24.876 21.7395 27.0846 21.6511 29.2451 22C29.4623 22.0375 29.6851 22.0267 29.8977 21.9683C30.1102 21.9099 30.3073 21.8053 30.4748 21.6621C30.6424 21.5189 30.7764 21.3405 30.8671 21.1397C30.9579 20.9388 31.0033 20.7204 31.0001 20.5V2.5C30.9845 2.15823 30.8525 1.83206 30.6261 1.57561C30.3996 1.31915 30.0923 1.1478 29.7551 1.09ZM14.5001 21.025C11.7249 19.565 8.63589 18.8031 5.50011 18.805C5.00511 18.805 4.51011 18.805 4.00011 18.805V3.805C4.4997 3.77621 5.00053 3.77621 5.50011 3.805C8.70019 3.80146 11.8304 4.74054 14.5001 6.505V21.025ZM28.0001 18.865C27.4901 18.865 26.9951 18.865 26.5001 18.865C23.3643 18.8631 20.2753 19.625 17.5001 21.085V6.505C20.1698 4.74054 23.3 3.80146 26.5001 3.805C26.9997 3.77621 27.5005 3.77621 28.0001 3.805V18.865ZM29.7551 25.09C28.6799 24.9048 27.5911 24.8095 26.5001 24.805C22.7777 24.8019 19.1328 25.8694 16.0001 27.88C12.8674 25.8694 9.22256 24.8019 5.50011 24.805C4.40908 24.8095 3.32032 24.9048 2.24511 25.09C2.04985 25.121 1.86265 25.1903 1.69426 25.2939C1.52586 25.3974 1.37961 25.5333 1.26391 25.6936C1.14821 25.8539 1.06534 26.0355 1.02007 26.228C0.974795 26.4204 0.968013 26.6199 1.00011 26.815C1.07634 27.2045 1.30385 27.548 1.6328 27.7701C1.96175 27.9922 2.36532 28.0749 2.75511 28C4.90464 27.6278 7.10691 27.6896 9.23221 28.1816C11.3575 28.6737 13.3628 29.586 15.1301 30.865C15.3842 31.0459 15.6883 31.1431 16.0001 31.1431C16.312 31.1431 16.6161 31.0459 16.8701 30.865C18.6374 29.586 20.6427 28.6737 22.768 28.1816C24.8933 27.6896 27.0956 27.6278 29.2451 28C29.6349 28.0749 30.0385 27.9922 30.3674 27.7701C30.6964 27.548 30.9239 27.2045 31.0001 26.815C31.0322 26.6199 31.0254 26.4204 30.9802 26.228C30.9349 26.0355 30.852 25.8539 30.7363 25.6936C30.6206 25.5333 30.4744 25.3974 30.306 25.2939C30.1376 25.1903 29.9504 25.121 29.7551 25.09Z" fill="#101130"/>
</svg>
