<svg width="25" height="25" viewBox="0 0 28 30" fill="none" xmlns="http://www.w3.org/2000/svg">
<path opacity="0.8" d="M20.0001 18H8.00012C7.6023 18 7.22077 18.158 6.93946 18.4393C6.65816 18.7206 6.50012 19.1022 6.50012 19.5C6.50012 19.8978 6.65816 20.2794 6.93946 20.5607C7.22077 20.842 7.6023 21 8.00012 21H20.0001C20.3979 21 20.7795 20.842 21.0608 20.5607C21.3421 20.2794 21.5001 19.8978 21.5001 19.5C21.5001 19.1022 21.3421 18.7206 21.0608 18.4393C20.7795 18.158 20.3979 18 20.0001 18ZM20.0001 12H11.0001C10.6023 12 10.2208 12.158 9.93946 12.4393C9.65816 12.7206 9.50012 13.1022 9.50012 13.5C9.50012 13.8978 9.65816 14.2794 9.93946 14.5607C10.2208 14.842 10.6023 15 11.0001 15H20.0001C20.3979 15 20.7795 14.842 21.0608 14.5607C21.3421 14.2794 21.5001 13.8978 21.5001 13.5C21.5001 13.1022 21.3421 12.7206 21.0608 12.4393C20.7795 12.158 20.3979 12 20.0001 12ZM26.0001 3H21.5001V1.5C21.5001 1.10218 21.3421 0.720644 21.0608 0.43934C20.7795 0.158035 20.3979 0 20.0001 0C19.6023 0 19.2208 0.158035 18.9395 0.43934C18.6582 0.720644 18.5001 1.10218 18.5001 1.5V3H15.5001V1.5C15.5001 1.10218 15.3421 0.720644 15.0608 0.43934C14.7795 0.158035 14.3979 0 14.0001 0C13.6023 0 13.2208 0.158035 12.9395 0.43934C12.6582 0.720644 12.5001 1.10218 12.5001 1.5V3H9.50012V1.5C9.50012 1.10218 9.34209 0.720644 9.06078 0.43934C8.77948 0.158035 8.39795 0 8.00012 0C7.6023 0 7.22077 0.158035 6.93946 0.43934C6.65816 0.720644 6.50012 1.10218 6.50012 1.5V3H2.00012C1.6023 3 1.22077 3.15804 0.939462 3.43934C0.658157 3.72064 0.500122 4.10218 0.500122 4.5V25.5C0.500122 26.6935 0.974228 27.8381 1.81814 28.682C2.66206 29.5259 3.80665 30 5.00012 30H23.0001C24.1936 30 25.3382 29.5259 26.1821 28.682C27.026 27.8381 27.5001 26.6935 27.5001 25.5V4.5C27.5001 4.10218 27.3421 3.72064 27.0608 3.43934C26.7795 3.15804 26.3979 3 26.0001 3ZM24.5001 25.5C24.5001 25.8978 24.3421 26.2794 24.0608 26.5607C23.7795 26.842 23.3979 27 23.0001 27H5.00012C4.6023 27 4.22077 26.842 3.93946 26.5607C3.65816 26.2794 3.50012 25.8978 3.50012 25.5V6H6.50012V7.5C6.50012 7.89782 6.65816 8.27936 6.93946 8.56066C7.22077 8.84196 7.6023 9 8.00012 9C8.39795 9 8.77948 8.84196 9.06078 8.56066C9.34209 8.27936 9.50012 7.89782 9.50012 7.5V6H12.5001V7.5C12.5001 7.89782 12.6582 8.27936 12.9395 8.56066C13.2208 8.84196 13.6023 9 14.0001 9C14.3979 9 14.7795 8.84196 15.0608 8.56066C15.3421 8.27936 15.5001 7.89782 15.5001 7.5V6H18.5001V7.5C18.5001 7.89782 18.6582 8.27936 18.9395 8.56066C19.2208 8.84196 19.6023 9 20.0001 9C20.3979 9 20.7795 8.84196 21.0608 8.56066C21.3421 8.27936 21.5001 7.89782 21.5001 7.5V6H24.5001V25.5Z" fill="#101130"/>
</svg>
