<svg width="25" height="25" viewBox="0 0 30 30" fill="none" xmlns="http://www.w3.org/2000/svg">
<path opacity="0.8" d="M28.5001 18H27.0001V3H28.5001C28.8979 3 29.2795 2.84196 29.5608 2.56066C29.8421 2.27936 30.0001 1.89782 30.0001 1.5C30.0001 1.10218 29.8421 0.720644 29.5608 0.43934C29.2795 0.158035 28.8979 0 28.5001 0H1.50012C1.1023 0 0.720766 0.158035 0.439462 0.43934C0.158157 0.720644 0.00012207 1.10218 0.00012207 1.5C0.00012207 1.89782 0.158157 2.27936 0.439462 2.56066C0.720766 2.84196 1.1023 3 1.50012 3H3.00012V18H1.50012C1.1023 18 0.720766 18.158 0.439462 18.4393C0.158157 18.7206 0.00012207 19.1022 0.00012207 19.5C0.00012207 19.8978 0.158157 20.2794 0.439462 20.5607C0.720766 20.842 1.1023 21 1.50012 21H13.5001V22.725L6.67512 27.225C6.39512 27.3983 6.17994 27.659 6.06277 27.9667C5.94561 28.2745 5.93297 28.6122 6.02681 28.9279C6.12065 29.2435 6.31576 29.5195 6.58202 29.7133C6.84829 29.907 7.17091 30.0078 7.50012 30C7.79502 30.0034 8.08356 29.9142 8.32512 29.745L13.5001 26.325V28.5C13.5001 28.8978 13.6582 29.2794 13.9395 29.5607C14.2208 29.842 14.6023 30 15.0001 30C15.3979 30 15.7795 29.842 16.0608 29.5607C16.3421 29.2794 16.5001 28.8978 16.5001 28.5V26.325L21.6751 29.745C21.9167 29.9142 22.2052 30.0034 22.5001 30C22.8206 29.9975 23.1318 29.8925 23.3883 29.7002C23.6447 29.508 23.8328 29.2387 23.9251 28.9318C24.0173 28.6249 24.0088 28.2965 23.9009 27.9947C23.7929 27.693 23.5911 27.4337 23.3251 27.255L16.5001 22.755V21H28.5001C28.8979 21 29.2795 20.842 29.5608 20.5607C29.8421 20.2794 30.0001 19.8978 30.0001 19.5C30.0001 19.1022 29.8421 18.7206 29.5608 18.4393C29.2795 18.158 28.8979 18 28.5001 18ZM24.0001 18H6.00012V3H24.0001V18ZM11.4151 15.39C11.8149 15.6262 12.2708 15.7508 12.7351 15.7508C13.1995 15.7508 13.6553 15.6262 14.0551 15.39L18.5551 12.78C18.9398 12.5439 19.2576 12.2131 19.478 11.8192C19.6984 11.4252 19.8141 10.9814 19.8141 10.53C19.8141 10.0786 19.6984 9.63476 19.478 9.24085C19.2576 8.84694 18.9398 8.51612 18.5551 8.28L14.0551 5.67C13.6553 5.4338 13.1995 5.30919 12.7351 5.30919C12.2708 5.30919 11.8149 5.4338 11.4151 5.67C11.0123 5.8971 10.6783 6.22889 10.4486 6.63025C10.2188 7.03161 10.1019 7.48762 10.1101 7.95V13.17C10.1126 13.6222 10.2347 14.0658 10.4638 14.4556C10.693 14.8455 11.0212 15.1679 11.4151 15.39ZM13.1101 8.52L16.5001 10.5L13.0801 12.48L13.1101 8.52Z" fill="#101130"/>
</svg>
